<?xml version="1.0" encoding="utf-8" standalone="no"?>
<!DOCTYPE svg PUBLIC "-//W3C//DTD SVG 1.1//EN"
  "http://www.w3.org/Graphics/SVG/1.1/DTD/svg11.dtd">
<svg xmlns:xlink="http://www.w3.org/1999/xlink" width="468pt" height="266.4pt" viewBox="0 0 468 266.4" xmlns="http://www.w3.org/2000/svg" version="1.1">
 <metadata>
  <rdf:RDF xmlns:dc="http://purl.org/dc/elements/1.1/" xmlns:cc="http://creativecommons.org/ns#" xmlns:rdf="http://www.w3.org/1999/02/22-rdf-syntax-ns#">
   <cc:Work>
    <dc:type rdf:resource="http://purl.org/dc/dcmitype/StillImage"/>
    <dc:date>2023-02-20T14:17:12.969429</dc:date>
    <dc:format>image/svg+xml</dc:format>
    <dc:creator>
     <cc:Agent>
      <dc:title>Matplotlib v3.6.3, https://matplotlib.org/</dc:title>
     </cc:Agent>
    </dc:creator>
   </cc:Work>
  </rdf:RDF>
 </metadata>
 <defs>
  <style type="text/css">*{stroke-linejoin: round; stroke-linecap: butt}</style>
 </defs>
 <g id="figure_1">
  <g id="patch_1">
   <path style="fill: none"/>
  </g>
  <g id="axes_1">
   <g id="Path3DCollection_1">
    <defs>
     <path id="md88e1991a0" d="M 0 2.738613 
C 0.726289 2.738613 1.422928 2.450055 1.936492 1.936492 
C 2.450055 1.422928 2.738613 0.726289 2.738613 0 
C 2.738613 -0.726289 2.450055 -1.422928 1.936492 -1.936492 
C 1.422928 -2.450055 0.726289 -2.738613 0 -2.738613 
C -0.726289 -2.738613 -1.422928 -2.450055 -1.936492 -1.936492 
C -2.450055 -1.422928 -2.738613 -0.726289 -2.738613 0 
C -2.738613 0.726289 -2.450055 1.422928 -1.936492 1.936492 
C -1.422928 2.450055 -0.726289 2.738613 0 2.738613 
z
" style="stroke: #348abd; stroke-width: 0.5"/>
    </defs>
    <g clip-path="url(#p0d3e0cc7bb)">
     <use xlink:href="#md88e1991a0" x="403.735136" y="20.607109" style="fill: #348abd; stroke: #348abd; stroke-width: 0.5"/>
    </g>
   </g>
   <g id="line2d_1">
    <path d="M 268.096812 176.71468 
L 162.638323 146.271436 
L 162.638323 190.761736 
L 268.096812 221.20498 
L 268.096812 176.71468 
" clip-path="url(#p0d3e0cc7bb)" style="fill: none; stroke: #348abd; stroke-width: 1.5; stroke-linecap: square"/>
   </g>
   <g id="line2d_2">
    <path d="M 449.936624 77.198788 
L 186.290403 1.09068 
L 186.290403 112.316429 
L 449.936624 188.424537 
L 449.936624 77.198788 
" clip-path="url(#p0d3e0cc7bb)" style="fill: none; stroke: #348abd; stroke-width: 1.5; stroke-linecap: square"/>
   </g>
   <g id="Line3DCollection_1">
    <path d="M 215.367568 172.615633 
L 215.367568 183.738208 
" clip-path="url(#p0d3e0cc7bb)" style="fill: none; stroke: #988ed5; stroke-width: 1.5"/>
    <path d="M 215.367568 172.615633 
L 214.216074 175.5063 
" clip-path="url(#p0d3e0cc7bb)" style="fill: none; stroke: #988ed5; stroke-width: 1.5"/>
    <path d="M 215.367568 172.615633 
L 216.519061 176.171115 
" clip-path="url(#p0d3e0cc7bb)" style="fill: none; stroke: #988ed5; stroke-width: 1.5"/>
   </g>
   <g id="text_1">
    <!-- position -->
    <g style="fill: #e24a33" transform="translate(123.118621 251.819019) rotate(16.102114) scale(0.12 -0.12)">
     <defs>
      <path id="DejaVuSans-70" d="M 1159 525 
L 1159 -1331 
L 581 -1331 
L 581 3500 
L 1159 3500 
L 1159 2969 
Q 1341 3281 1617 3432 
Q 1894 3584 2278 3584 
Q 2916 3584 3314 3078 
Q 3713 2572 3713 1747 
Q 3713 922 3314 415 
Q 2916 -91 2278 -91 
Q 1894 -91 1617 61 
Q 1341 213 1159 525 
z
M 3116 1747 
Q 3116 2381 2855 2742 
Q 2594 3103 2138 3103 
Q 1681 3103 1420 2742 
Q 1159 2381 1159 1747 
Q 1159 1113 1420 752 
Q 1681 391 2138 391 
Q 2594 391 2855 752 
Q 3116 1113 3116 1747 
z
" transform="scale(0.015625)"/>
      <path id="DejaVuSans-6f" d="M 1959 3097 
Q 1497 3097 1228 2736 
Q 959 2375 959 1747 
Q 959 1119 1226 758 
Q 1494 397 1959 397 
Q 2419 397 2687 759 
Q 2956 1122 2956 1747 
Q 2956 2369 2687 2733 
Q 2419 3097 1959 3097 
z
M 1959 3584 
Q 2709 3584 3137 3096 
Q 3566 2609 3566 1747 
Q 3566 888 3137 398 
Q 2709 -91 1959 -91 
Q 1206 -91 779 398 
Q 353 888 353 1747 
Q 353 2609 779 3096 
Q 1206 3584 1959 3584 
z
" transform="scale(0.015625)"/>
      <path id="DejaVuSans-73" d="M 2834 3397 
L 2834 2853 
Q 2591 2978 2328 3040 
Q 2066 3103 1784 3103 
Q 1356 3103 1142 2972 
Q 928 2841 928 2578 
Q 928 2378 1081 2264 
Q 1234 2150 1697 2047 
L 1894 2003 
Q 2506 1872 2764 1633 
Q 3022 1394 3022 966 
Q 3022 478 2636 193 
Q 2250 -91 1575 -91 
Q 1294 -91 989 -36 
Q 684 19 347 128 
L 347 722 
Q 666 556 975 473 
Q 1284 391 1588 391 
Q 1994 391 2212 530 
Q 2431 669 2431 922 
Q 2431 1156 2273 1281 
Q 2116 1406 1581 1522 
L 1381 1569 
Q 847 1681 609 1914 
Q 372 2147 372 2553 
Q 372 3047 722 3315 
Q 1072 3584 1716 3584 
Q 2034 3584 2315 3537 
Q 2597 3491 2834 3397 
z
" transform="scale(0.015625)"/>
      <path id="DejaVuSans-69" d="M 603 3500 
L 1178 3500 
L 1178 0 
L 603 0 
L 603 3500 
z
M 603 4863 
L 1178 4863 
L 1178 4134 
L 603 4134 
L 603 4863 
z
" transform="scale(0.015625)"/>
      <path id="DejaVuSans-74" d="M 1172 4494 
L 1172 3500 
L 2356 3500 
L 2356 3053 
L 1172 3053 
L 1172 1153 
Q 1172 725 1289 603 
Q 1406 481 1766 481 
L 2356 481 
L 2356 0 
L 1766 0 
Q 1100 0 847 248 
Q 594 497 594 1153 
L 594 3053 
L 172 3053 
L 172 3500 
L 594 3500 
L 594 4494 
L 1172 4494 
z
" transform="scale(0.015625)"/>
      <path id="DejaVuSans-6e" d="M 3513 2113 
L 3513 0 
L 2938 0 
L 2938 2094 
Q 2938 2591 2744 2837 
Q 2550 3084 2163 3084 
Q 1697 3084 1428 2787 
Q 1159 2491 1159 1978 
L 1159 0 
L 581 0 
L 581 3500 
L 1159 3500 
L 1159 2956 
Q 1366 3272 1645 3428 
Q 1925 3584 2291 3584 
Q 2894 3584 3203 3211 
Q 3513 2838 3513 2113 
z
" transform="scale(0.015625)"/>
     </defs>
     <use xlink:href="#DejaVuSans-70"/>
     <use xlink:href="#DejaVuSans-6f" x="63.476562"/>
     <use xlink:href="#DejaVuSans-73" x="124.658203"/>
     <use xlink:href="#DejaVuSans-69" x="176.757812"/>
     <use xlink:href="#DejaVuSans-74" x="204.541016"/>
     <use xlink:href="#DejaVuSans-69" x="243.75"/>
     <use xlink:href="#DejaVuSans-6f" x="271.533203"/>
     <use xlink:href="#DejaVuSans-6e" x="332.714844"/>
    </g>
   </g>
   <g id="text_2">
    <!-- look_at -->
    <g style="fill: #348abd" transform="translate(382.194201 29.36752) rotate(16.102114) scale(0.12 -0.12)">
     <defs>
      <path id="DejaVuSans-6c" d="M 603 4863 
L 1178 4863 
L 1178 0 
L 603 0 
L 603 4863 
z
" transform="scale(0.015625)"/>
      <path id="DejaVuSans-6b" d="M 581 4863 
L 1159 4863 
L 1159 1991 
L 2875 3500 
L 3609 3500 
L 1753 1863 
L 3688 0 
L 2938 0 
L 1159 1709 
L 1159 0 
L 581 0 
L 581 4863 
z
" transform="scale(0.015625)"/>
      <path id="DejaVuSans-5f" d="M 3263 -1063 
L 3263 -1509 
L -63 -1509 
L -63 -1063 
L 3263 -1063 
z
" transform="scale(0.015625)"/>
      <path id="DejaVuSans-61" d="M 2194 1759 
Q 1497 1759 1228 1600 
Q 959 1441 959 1056 
Q 959 750 1161 570 
Q 1363 391 1709 391 
Q 2188 391 2477 730 
Q 2766 1069 2766 1631 
L 2766 1759 
L 2194 1759 
z
M 3341 1997 
L 3341 0 
L 2766 0 
L 2766 531 
Q 2569 213 2275 61 
Q 1981 -91 1556 -91 
Q 1019 -91 701 211 
Q 384 513 384 1019 
Q 384 1609 779 1909 
Q 1175 2209 1959 2209 
L 2766 2209 
L 2766 2266 
Q 2766 2663 2505 2880 
Q 2244 3097 1772 3097 
Q 1472 3097 1187 3025 
Q 903 2953 641 2809 
L 641 3341 
Q 956 3463 1253 3523 
Q 1550 3584 1831 3584 
Q 2591 3584 2966 3190 
Q 3341 2797 3341 1997 
z
" transform="scale(0.015625)"/>
     </defs>
     <use xlink:href="#DejaVuSans-6c"/>
     <use xlink:href="#DejaVuSans-6f" x="27.783203"/>
     <use xlink:href="#DejaVuSans-6f" x="88.964844"/>
     <use xlink:href="#DejaVuSans-6b" x="150.146484"/>
     <use xlink:href="#DejaVuSans-5f" x="208.056641"/>
     <use xlink:href="#DejaVuSans-61" x="258.056641"/>
     <use xlink:href="#DejaVuSans-74" x="319.335938"/>
    </g>
   </g>
   <g id="text_3">
    <!-- up -->
    <g style="fill: #988ed5" transform="translate(216.059729 179.247199) rotate(16.102114) scale(0.12 -0.12)">
     <defs>
      <path id="DejaVuSans-75" d="M 544 1381 
L 544 3500 
L 1119 3500 
L 1119 1403 
Q 1119 906 1312 657 
Q 1506 409 1894 409 
Q 2359 409 2629 706 
Q 2900 1003 2900 1516 
L 2900 3500 
L 3475 3500 
L 3475 0 
L 2900 0 
L 2900 538 
Q 2691 219 2414 64 
Q 2138 -91 1772 -91 
Q 1169 -91 856 284 
Q 544 659 544 1381 
z
M 1991 3584 
L 1991 3584 
z
" transform="scale(0.015625)"/>
     </defs>
     <use xlink:href="#DejaVuSans-75"/>
     <use xlink:href="#DejaVuSans-70" x="63.378906"/>
    </g>
   </g>
   <g id="text_4">
    <!-- image plane -->
    <g style="fill: #348abd" transform="translate(167.779515 184.898022) rotate(16.102114) scale(0.12 -0.12)">
     <defs>
      <path id="DejaVuSans-6d" d="M 3328 2828 
Q 3544 3216 3844 3400 
Q 4144 3584 4550 3584 
Q 5097 3584 5394 3201 
Q 5691 2819 5691 2113 
L 5691 0 
L 5113 0 
L 5113 2094 
Q 5113 2597 4934 2840 
Q 4756 3084 4391 3084 
Q 3944 3084 3684 2787 
Q 3425 2491 3425 1978 
L 3425 0 
L 2847 0 
L 2847 2094 
Q 2847 2600 2669 2842 
Q 2491 3084 2119 3084 
Q 1678 3084 1418 2786 
Q 1159 2488 1159 1978 
L 1159 0 
L 581 0 
L 581 3500 
L 1159 3500 
L 1159 2956 
Q 1356 3278 1631 3431 
Q 1906 3584 2284 3584 
Q 2666 3584 2933 3390 
Q 3200 3197 3328 2828 
z
" transform="scale(0.015625)"/>
      <path id="DejaVuSans-67" d="M 2906 1791 
Q 2906 2416 2648 2759 
Q 2391 3103 1925 3103 
Q 1463 3103 1205 2759 
Q 947 2416 947 1791 
Q 947 1169 1205 825 
Q 1463 481 1925 481 
Q 2391 481 2648 825 
Q 2906 1169 2906 1791 
z
M 3481 434 
Q 3481 -459 3084 -895 
Q 2688 -1331 1869 -1331 
Q 1566 -1331 1297 -1286 
Q 1028 -1241 775 -1147 
L 775 -588 
Q 1028 -725 1275 -790 
Q 1522 -856 1778 -856 
Q 2344 -856 2625 -561 
Q 2906 -266 2906 331 
L 2906 616 
Q 2728 306 2450 153 
Q 2172 0 1784 0 
Q 1141 0 747 490 
Q 353 981 353 1791 
Q 353 2603 747 3093 
Q 1141 3584 1784 3584 
Q 2172 3584 2450 3431 
Q 2728 3278 2906 2969 
L 2906 3500 
L 3481 3500 
L 3481 434 
z
" transform="scale(0.015625)"/>
      <path id="DejaVuSans-65" d="M 3597 1894 
L 3597 1613 
L 953 1613 
Q 991 1019 1311 708 
Q 1631 397 2203 397 
Q 2534 397 2845 478 
Q 3156 559 3463 722 
L 3463 178 
Q 3153 47 2828 -22 
Q 2503 -91 2169 -91 
Q 1331 -91 842 396 
Q 353 884 353 1716 
Q 353 2575 817 3079 
Q 1281 3584 2069 3584 
Q 2775 3584 3186 3129 
Q 3597 2675 3597 1894 
z
M 3022 2063 
Q 3016 2534 2758 2815 
Q 2500 3097 2075 3097 
Q 1594 3097 1305 2825 
Q 1016 2553 972 2059 
L 3022 2063 
z
" transform="scale(0.015625)"/>
      <path id="DejaVuSans-20" transform="scale(0.015625)"/>
     </defs>
     <use xlink:href="#DejaVuSans-69"/>
     <use xlink:href="#DejaVuSans-6d" x="27.783203"/>
     <use xlink:href="#DejaVuSans-61" x="125.195312"/>
     <use xlink:href="#DejaVuSans-67" x="186.474609"/>
     <use xlink:href="#DejaVuSans-65" x="249.951172"/>
     <use xlink:href="#DejaVuSans-20" x="311.474609"/>
     <use xlink:href="#DejaVuSans-70" x="343.261719"/>
     <use xlink:href="#DejaVuSans-6c" x="406.738281"/>
     <use xlink:href="#DejaVuSans-61" x="434.521484"/>
     <use xlink:href="#DejaVuSans-6e" x="495.800781"/>
     <use xlink:href="#DejaVuSans-65" x="559.179688"/>
    </g>
   </g>
   <g id="text_5">
    <!-- height -->
    <g style="fill: #348abd" transform="translate(277.214937 218.08483) rotate(-90) scale(0.12 -0.12)">
     <defs>
      <path id="DejaVuSans-68" d="M 3513 2113 
L 3513 0 
L 2938 0 
L 2938 2094 
Q 2938 2591 2744 2837 
Q 2550 3084 2163 3084 
Q 1697 3084 1428 2787 
Q 1159 2491 1159 1978 
L 1159 0 
L 581 0 
L 581 4863 
L 1159 4863 
L 1159 2956 
Q 1366 3272 1645 3428 
Q 1925 3584 2291 3584 
Q 2894 3584 3203 3211 
Q 3513 2838 3513 2113 
z
" transform="scale(0.015625)"/>
     </defs>
     <use xlink:href="#DejaVuSans-68"/>
     <use xlink:href="#DejaVuSans-65" x="63.378906"/>
     <use xlink:href="#DejaVuSans-69" x="124.902344"/>
     <use xlink:href="#DejaVuSans-67" x="152.685547"/>
     <use xlink:href="#DejaVuSans-68" x="216.162109"/>
     <use xlink:href="#DejaVuSans-74" x="279.541016"/>
    </g>
   </g>
   <g id="text_6">
    <!-- focal plane -->
    <g style="fill: #348abd" transform="translate(186.982565 13.187863) rotate(16.102114) scale(0.12 -0.12)">
     <defs>
      <path id="DejaVuSans-66" d="M 2375 4863 
L 2375 4384 
L 1825 4384 
Q 1516 4384 1395 4259 
Q 1275 4134 1275 3809 
L 1275 3500 
L 2222 3500 
L 2222 3053 
L 1275 3053 
L 1275 0 
L 697 0 
L 697 3053 
L 147 3053 
L 147 3500 
L 697 3500 
L 697 3744 
Q 697 4328 969 4595 
Q 1241 4863 1831 4863 
L 2375 4863 
z
" transform="scale(0.015625)"/>
      <path id="DejaVuSans-63" d="M 3122 3366 
L 3122 2828 
Q 2878 2963 2633 3030 
Q 2388 3097 2138 3097 
Q 1578 3097 1268 2742 
Q 959 2388 959 1747 
Q 959 1106 1268 751 
Q 1578 397 2138 397 
Q 2388 397 2633 464 
Q 2878 531 3122 666 
L 3122 134 
Q 2881 22 2623 -34 
Q 2366 -91 2075 -91 
Q 1284 -91 818 406 
Q 353 903 353 1747 
Q 353 2603 823 3093 
Q 1294 3584 2113 3584 
Q 2378 3584 2631 3529 
Q 2884 3475 3122 3366 
z
" transform="scale(0.015625)"/>
     </defs>
     <use xlink:href="#DejaVuSans-66"/>
     <use xlink:href="#DejaVuSans-6f" x="35.205078"/>
     <use xlink:href="#DejaVuSans-63" x="96.386719"/>
     <use xlink:href="#DejaVuSans-61" x="151.367188"/>
     <use xlink:href="#DejaVuSans-6c" x="212.646484"/>
     <use xlink:href="#DejaVuSans-20" x="240.429688"/>
     <use xlink:href="#DejaVuSans-70" x="272.216797"/>
     <use xlink:href="#DejaVuSans-6c" x="335.693359"/>
     <use xlink:href="#DejaVuSans-61" x="363.476562"/>
     <use xlink:href="#DejaVuSans-6e" x="424.755859"/>
     <use xlink:href="#DejaVuSans-65" x="488.134766"/>
    </g>
   </g>
   <g id="Path3DCollection_2">
    <defs>
     <path id="mab1f9b9c9d" d="M 0 2.738613 
C 0.726289 2.738613 1.422928 2.450055 1.936492 1.936492 
C 2.450055 1.422928 2.738613 0.726289 2.738613 0 
C 2.738613 -0.726289 2.450055 -1.422928 1.936492 -1.936492 
C 1.422928 -2.450055 0.726289 -2.738613 0 -2.738613 
C -0.726289 -2.738613 -1.422928 -2.450055 -1.936492 -1.936492 
C -2.450055 -1.422928 -2.738613 -0.726289 -2.738613 0 
C -2.738613 0.726289 -2.450055 1.422928 -1.936492 1.936492 
C -1.422928 2.450055 -0.726289 2.738613 0 2.738613 
z
" style="stroke: #e24a33; stroke-width: 0.5"/>
    </defs>
    <g clip-path="url(#p0d3e0cc7bb)">
     <use xlink:href="#mab1f9b9c9d" x="146.87027" y="243.058608" style="fill: #e24a33; stroke: #e24a33; stroke-width: 0.5"/>
    </g>
   </g>
   <g id="Line3DCollection_2">
    <path d="M 449.936624 77.198788 
L 146.87027 243.058608 
" clip-path="url(#p0d3e0cc7bb)" style="fill: none; stroke: #777777; stroke-width: 1.5"/>
    <path d="M 449.936624 77.198788 
L 422.454632 98.868247 
" clip-path="url(#p0d3e0cc7bb)" style="fill: none; stroke: #777777; stroke-width: 1.5"/>
    <path d="M 449.936624 77.198788 
L 418.870693 87.570985 
" clip-path="url(#p0d3e0cc7bb)" style="fill: none; stroke: #777777; stroke-width: 1.5"/>
   </g>
   <g id="Line3DCollection_3">
    <path d="M 186.290403 1.09068 
L 146.87027 243.058608 
" clip-path="url(#p0d3e0cc7bb)" style="fill: none; stroke: #777777; stroke-width: 1.5"/>
    <path d="M 186.290403 1.09068 
L 182.715794 29.661606 
" clip-path="url(#p0d3e0cc7bb)" style="fill: none; stroke: #777777; stroke-width: 1.5"/>
    <path d="M 186.290403 1.09068 
L 182.249628 19.264367 
" clip-path="url(#p0d3e0cc7bb)" style="fill: none; stroke: #777777; stroke-width: 1.5"/>
   </g>
   <g id="Line3DCollection_4">
    <path d="M 186.290403 112.316429 
L 146.87027 243.058608 
" clip-path="url(#p0d3e0cc7bb)" style="fill: none; stroke: #777777; stroke-width: 1.5"/>
    <path d="M 186.290403 112.316429 
L 182.249628 132.347532 
" clip-path="url(#p0d3e0cc7bb)" style="fill: none; stroke: #777777; stroke-width: 1.5"/>
    <path d="M 186.290403 112.316429 
L 182.715794 117.542776 
" clip-path="url(#p0d3e0cc7bb)" style="fill: none; stroke: #777777; stroke-width: 1.5"/>
   </g>
   <g id="Line3DCollection_5">
    <path d="M 449.936624 188.424537 
L 146.87027 243.058608 
" clip-path="url(#p0d3e0cc7bb)" style="fill: none; stroke: #777777; stroke-width: 1.5"/>
    <path d="M 449.936624 188.424537 
L 418.870693 200.65415 
" clip-path="url(#p0d3e0cc7bb)" style="fill: none; stroke: #777777; stroke-width: 1.5"/>
    <path d="M 449.936624 188.424537 
L 422.454632 186.749417 
" clip-path="url(#p0d3e0cc7bb)" style="fill: none; stroke: #777777; stroke-width: 1.5"/>
   </g>
  </g>
 </g>
 <defs>
  <clipPath id="p0d3e0cc7bb">
   <rect x="-52.2" y="-100.8" width="554.4" height="554.4"/>
  </clipPath>
 </defs>
</svg>
